<?xml version="1.0" encoding="utf-8"?>
<!-- Generator: Adobe Illustrator 14.0.0, SVG Export Plug-In . SVG Version: 6.00 Build 43363)  -->
<!DOCTYPE svg PUBLIC "-//W3C//DTD SVG 1.1//EN" "http://www.w3.org/Graphics/SVG/1.1/DTD/svg11.dtd">
<svg version="1.1" id="Layer_1" xmlns="http://www.w3.org/2000/svg" xmlns:xlink="http://www.w3.org/1999/xlink" x="0px" y="0px"
	 width="288px" height="288px" viewBox="0 0 288 288" enable-background="new 0 0 288 288" xml:space="preserve">
<g>
	<g>
		<circle fill="none" stroke="#231F20" stroke-width="0.25" cx="135.42" cy="139.394" r="89.183"/>
		<path fill="none" stroke="#231F20" stroke-width="0.25" d="M204.962,132.574c-4.425,0-8.15,3.048-9.189,7.154h-11.244
			c-1.078-2.453-9.458-21.543-9.458-21.543c-0.384-0.874-1.264-1.425-2.218-1.387c-0.955,0.037-1.789,0.655-2.103,1.558
			c0,0-8.88,25.507-11.758,33.772c-3.515-8.106-14.712-33.933-14.712-33.933c-0.38-0.877-1.261-1.432-2.216-1.397
			c-0.957,0.035-1.794,0.652-2.109,1.556c0,0-8.908,25.521-11.792,33.779c-3.51-8.102-14.703-33.936-14.703-33.936
			c-0.381-0.878-1.261-1.434-2.217-1.398c-0.955,0.034-1.793,0.652-2.108,1.554c0,0-8.892,25.421-11.797,33.728
			c-2.727-6.412-7.512-17.663-7.512-17.663c-0.364-0.857-1.206-1.415-2.137-1.415H74.832c-1.039-4.106-4.764-7.154-9.188-7.154
			c-5.227,0-9.478,4.251-9.478,9.478c0,5.226,4.251,9.478,9.478,9.478c4.425,0,8.149-3.048,9.188-7.155h11.317
			c1.061,2.493,9.26,21.774,9.26,21.774c0.376,0.884,1.255,1.444,2.215,1.414c0.958-0.033,1.8-0.65,2.116-1.557
			c0,0,8.931-25.53,11.817-33.783c3.508,8.097,14.707,33.942,14.707,33.942c0.38,0.877,1.26,1.434,2.216,1.398
			c0.957-0.035,1.793-0.653,2.108-1.557c0,0,8.912-25.524,11.793-33.781c3.512,8.1,14.715,33.94,14.715,33.94
			c0.38,0.877,1.261,1.434,2.217,1.398c0.958-0.037,1.794-0.655,2.109-1.559c0,0,8.907-25.581,11.771-33.81
			c2.774,6.32,7.69,17.518,7.69,17.518c0.371,0.844,1.206,1.39,2.127,1.39h12.762c1.039,4.107,4.765,7.154,9.189,7.154
			c5.227,0,9.478-4.252,9.478-9.479C214.44,136.826,210.188,132.574,204.962,132.574z M65.643,140.156
			c-2.664,0-4.831-2.166-4.831-4.83c0-2.664,2.167-4.831,4.831-4.831c2.664,0,4.831,2.167,4.831,4.831
			C70.474,137.991,68.307,140.156,65.643,140.156z M204.962,146.882c-2.665,0-4.832-2.166-4.832-4.831
			c0-2.664,2.167-4.831,4.832-4.831c2.663,0,4.831,2.167,4.831,4.831C209.793,144.716,207.625,146.882,204.962,146.882z"/>
	</g>
</g>
</svg>
